<?xml version="1.0" ?><svg xmlns="http://www.w3.org/2000/svg" xmlns:xlink="http://www.w3.org/1999/xlink" version="1.1" viewBox="0 0 512 512" style="enable-background:new 0 0 512 512;" xml:space="preserve"><g id="_x31_8_x2C__Eyeglasses_x2C__look_x2C__healthcare_and_medical_x2C__reading_glasses_x2C__looking_x2C__reading_x2C__eyes_x2C__fashion"><g><g><path style="fill:#3B6A75;" d="M496.357,330.472l-22.095-22.095c22.639-21.839,36.744-52.468,36.744-86.333     c0-66.168-53.832-120-120-120c-45.597,0-85.333,25.565-105.635,63.113c-19.355-4.13-39.374-4.13-58.73,0     c-20.302-37.547-60.038-63.113-105.635-63.113c-66.168,0-120,53.832-120,120c0,33.865,14.105,64.494,36.744,86.333L15.657,330.47     c-19.55,19.536-19.558,51.173-0.002,70.715c11.695,11.695,30.726,11.696,42.422,0l59.205-59.205     c67.911,2.077,122.946-52.301,123.706-118.541c9.928-1.889,20.103-1.888,30.035,0.001     c0.762,66.352,55.911,120.613,123.706,118.54l59.205,59.205c11.694,11.692,30.724,11.698,42.42,0.002     c9.45-9.443,14.654-22.001,14.654-35.358S505.804,339.914,496.357,330.472z M43.934,387.042c-3.897,3.9-10.24,3.897-14.14-0.002     c-11.729-11.721-11.735-30.697,0.002-42.426l23.531-23.531c11.703,8.022,24.892,14.023,39.062,17.503L43.934,387.042z      M121.006,322.043c-55.141,0-100-44.859-100-100s44.859-100,100-100s100,44.859,100,100S176.146,322.043,121.006,322.043z      M239.553,203.385c-1.048-6.681-2.647-13.181-4.753-19.452c14.025-2.503,28.387-2.503,42.413,0     c-2.106,6.271-3.706,12.771-4.753,19.452C261.558,201.573,250.452,201.573,239.553,203.385z M291.006,222.043     c0-55.141,44.859-100,100-100s100,44.859,100,100s-44.859,100-100,100S291.006,277.184,291.006,222.043z M482.216,387.042     c-3.899,3.897-10.241,3.899-14.139,0l-48.456-48.456c14.171-3.48,27.36-9.481,39.063-17.503l23.533,23.533     C493.946,356.338,493.951,375.313,482.216,387.042z"/></g><g><path style="fill:#5596FB;" d="M121.006,142.043c-44.112,0-80,35.888-80,80s35.888,80,80,80s80-35.888,80-80     S165.118,142.043,121.006,142.043z M121.006,282.043c-33.084,0-60-26.916-60-60s26.916-60,60-60s60,26.916,60,60     S154.09,282.043,121.006,282.043z"/><path style="fill:#5596FB;" d="M391.006,142.043c-44.112,0-80,35.888-80,80s35.888,80,80,80s80-35.888,80-80     S435.118,142.043,391.006,142.043z M391.006,282.043c-33.084,0-60-26.916-60-60s26.916-60,60-60s60,26.916,60,60     S424.09,282.043,391.006,282.043z"/></g></g></g><g id="Layer_1"/></svg>