<?xml version="1.0" ?><!DOCTYPE svg  PUBLIC '-//W3C//DTD SVG 1.1//EN'  'http://www.w3.org/Graphics/SVG/1.1/DTD/svg11.dtd'><svg enable-background="new 0 0 64 64" height="64px" id="Layer_1" version="1.1" viewBox="0 0 64 64" width="64px" xml:space="preserve" xmlns="http://www.w3.org/2000/svg" xmlns:xlink="http://www.w3.org/1999/xlink"><path d="M43.002,2.23c-2.655,0-5.136,0.71-7.286,1.93c-0.017,0.007-0.029,0.01-0.048,0.019  c-1.99,0.95-3.223-0.321-3.223-0.321s-0.006,0.014-0.006,0.017C29.673,1.471,26.07,0.01,22.115,0.01  c-8.749,0-15.828,7.096-15.828,15.829c0,2.756,0.725,5.337,1.966,7.594l-0.011,0.001c0,0,6.955,13.339,7.447,14.701  c0.926,2.582,1.722,4.902,2.001,6.005c0.807,3.126,2.902,17.589,9.322,19.806c0.322,0.054,0.876,0.101,1.11-0.119  c0.426-0.55,0.507-1.619,0.074-3.2v-0.018c0,0-0.857-3.12-0.685-4.924c0.317-4.487,1.865-11.177,2.058-12.002  c0.386-1.715,3.416-1.031,3.416-1.031l0.001-0.003c1.16,0.567,2.105,0.966,2.715,1.203v0.003c0,0,1.587,0.612,2.197,3.12  c0.048,0.241,0.092,0.499,0.134,0.784c0.031,0.221,0.071,0.419,0.086,0.663c0.02,0.166,0.037,0.342,0.056,0.52  c0.004,0.03,0.006,0.078,0.01,0.104c0.241,2.597,0.262,6.57-0.231,12.644c0,0.003,0,0.006,0,0.01  c-0.117,1.53,0.719,2.021,0.719,2.021c0.313,0.121,0.718,0.243,1.077,0.231c0.697-0.023,1.422-0.166,1.897-0.65  c0.254-0.256,0.521-0.544,0.807-0.895c3.843-4.707,5.444-6.243,6.128-16.578c0.484-7.069,3.133-13.524,5.055-17.678l1.776-3.281  v-0.006c1.456-2.281,2.302-4.992,2.302-7.904C57.713,8.827,51.116,2.23,43.002,2.23z M47.76,33.332  c-2.75,7.004-2.901,8.46-2.867,8.134c-0.242,2.278-0.566,4.959-0.941,7.066c-0.38,0.938-0.922-0.01-0.922-0.01l-0.005,0.003  c-0.23-2.386-0.949-5.366-2.863-7.82c-3.059-2.948-7.696-3.444-10.134-3.483c-1.523-0.077-2.465,0.966-2.645,1.183  c-0.994,1.48-2.169,3.974-2.897,5.604l-0.879,2.669c-0.031,0.178-0.07,0.368-0.097,0.541c0,0,0,0-0.001,0.003  c-0.321,0.733-0.704,0-0.704,0L22.8,47.225c-0.318-1.43-0.777-3.159-1.241-4.82c-0.978-3.64-3.55-8.086-4.183-9.149  c-0.024-0.038-0.049-0.08-0.073-0.12c-0.04-0.068-0.07-0.116-0.07-0.116l0.001-0.001c-1.092-1.819-2.52-4.354-4.327-7.863  c-4.992-9.7-0.713-16.309,4.279-18.971c6.586-3.112,12.72,0.16,15.281,1.904l0.001-0.001c0,0,1.198,0.826,3.188,0.36  c0.002,0,0.003,0,0.006,0c3.664-0.982,11.559-2.398,14.757,2.491C54.653,17.405,51.991,25.06,47.76,33.332z" fill="#241F20"/></svg>