<?xml version="1.0" ?><svg data-name="Layer 1" id="Layer_1" viewBox="0 0 256 256" xmlns="http://www.w3.org/2000/svg"><defs><style>.cls-1{fill:none;stroke:#000;stroke-miterlimit:10;stroke-width:8px;}</style></defs><title/><circle class="cls-1" cx="42.96" cy="26.25" r="13.5"/><circle class="cls-1" cx="173.96" cy="26.25" r="13.5"/><path class="cls-1" d="M43,39.75v33a65.5,65.5,0,0,0,65.5,65.5h0A65.5,65.5,0,0,0,174,72.75v-33"/><path class="cls-1" d="M108.46,138.25V219.5a23.75,23.75,0,0,0,23.75,23.75h0A23.75,23.75,0,0,0,156,219.5V171a23.75,23.75,0,0,1,23.75-23.75h0A23.75,23.75,0,0,1,203.46,171v19.75"/><circle class="cls-1" cx="203.46" cy="213.83" r="23.08"/><circle class="cls-1" cx="203.46" cy="213.83" r="11.17"/></svg>