<?xml version="1.0" ?><svg height="512" preserveAspectRatio="xMidYMid" viewBox="0 0 512 512" width="512" xmlns="http://www.w3.org/2000/svg" xmlns:xlink="http://www.w3.org/1999/xlink"><defs><style>
      .cls-1 {
        fill: #828383;
        fill-rule: evenodd;
      }
    </style></defs><path class="cls-1" d="M508.562,446.941 C508.562,481.312 475.431,509.203 434.627,509.203 C376.353,511.260 316.725,512.183 255.927,512.087 C195.125,512.183 135.497,511.260 77.225,509.203 C36.420,509.203 3.288,481.312 3.288,446.941 C0.851,419.703 -0.231,392.483 -0.117,365.264 C-0.231,338.045 0.851,310.807 3.288,283.587 C3.288,249.217 36.420,221.325 77.225,221.325 C135.497,219.248 195.125,218.344 255.927,218.441 C316.725,218.344 376.353,219.248 434.627,221.325 C475.431,221.325 508.562,249.217 508.562,283.587 C511.000,310.807 512.083,338.045 511.972,365.264 C512.083,392.483 511.000,419.703 508.562,446.941 ZM146.941,263.960 L39.535,263.960 L39.535,291.969 L75.735,291.969 L75.735,456.918 L110.740,456.918 L110.740,291.969 L146.941,291.969 L146.941,263.960 ZM235.207,314.574 L204.132,314.574 L204.132,422.626 C201.218,425.739 198.013,428.277 194.537,430.295 C191.018,432.275 188.152,433.274 185.871,433.274 C182.939,433.274 180.840,432.524 179.531,431.007 C178.245,429.507 177.589,427.066 177.589,423.681 L177.589,314.574 L146.512,314.574 L146.512,433.544 C146.512,442.020 148.339,448.365 151.996,452.612 C155.628,456.860 161.022,458.974 168.223,458.974 C174.045,458.974 180.050,457.457 186.234,454.438 C192.440,451.382 198.397,446.980 204.132,441.193 L204.132,456.918 L235.207,456.918 L235.207,314.574 ZM354.800,348.464 C354.800,336.834 352.206,327.973 347.015,321.918 C341.867,315.824 334.332,312.786 324.513,312.786 C319.705,312.786 314.944,313.900 310.227,316.188 C305.510,318.438 301.063,321.725 296.887,326.070 L296.887,263.960 L265.518,263.960 L265.518,456.918 L296.887,456.918 L296.887,445.961 C300.951,450.304 305.396,453.515 310.159,455.592 C314.921,457.667 320.314,458.726 326.409,458.726 C335.616,458.726 342.657,456.034 347.511,450.671 C352.361,445.288 354.800,437.542 354.800,427.431 L354.800,348.464 ZM469.653,406.036 L437.672,406.036 L437.672,415.935 C437.672,424.316 436.659,429.717 434.580,432.178 C432.528,434.620 428.939,435.869 423.794,435.869 C418.828,435.869 415.352,434.408 413.299,431.505 C411.223,428.604 410.229,423.413 410.229,415.935 L410.229,389.082 L469.653,389.082 L469.653,352.845 C469.653,339.352 465.840,328.991 458.187,321.782 C450.562,314.574 439.636,310.980 425.440,310.980 C411.517,310.980 400.208,314.864 391.408,322.649 C382.628,330.433 378.248,340.506 378.248,352.845 L378.248,416.742 C378.248,430.430 382.244,441.193 390.234,449.018 C398.224,456.860 409.168,460.763 423.071,460.763 C438.553,460.763 450.178,457.073 457.964,449.709 C465.750,442.309 469.653,431.334 469.653,416.742 L469.653,406.036 ZM410.229,352.578 C410.229,346.618 411.289,342.350 413.457,339.776 C415.623,337.199 419.168,335.911 424.085,335.911 C428.849,335.911 432.257,337.199 434.447,339.776 C436.591,342.350 437.672,346.618 437.672,352.578 L437.672,366.994 L410.229,366.994 L410.229,352.578 ZM311.762,436.349 C309.120,436.349 306.594,435.869 304.247,434.831 C301.855,433.811 299.415,432.141 296.887,429.834 L296.887,341.119 C298.988,339.159 301.130,337.719 303.298,336.795 C305.442,335.854 307.655,335.374 309.867,335.374 C314.087,335.374 317.293,336.622 319.504,339.122 C321.715,341.620 322.820,345.253 322.820,350.078 L322.820,423.547 C322.820,428.083 321.940,431.351 320.134,433.371 C318.353,435.369 315.554,436.349 311.762,436.349 ZM384.026,177.363 C378.319,183.150 372.360,187.571 366.152,190.588 C359.969,193.626 353.965,195.126 348.118,195.126 C340.944,195.126 335.526,193.009 331.870,188.782 C328.213,184.551 326.433,178.170 326.433,169.711 L326.433,50.744 L357.486,50.744 L357.486,159.852 C357.486,163.233 358.140,165.656 359.450,167.174 C360.734,168.674 362.857,169.444 365.745,169.444 C368.048,169.444 370.937,168.443 374.413,166.425 C377.910,164.446 381.137,161.888 384.026,158.775 L384.026,50.744 L415.082,50.744 L415.082,193.068 L384.026,193.068 L384.026,177.363 ZM254.705,196.682 C241.122,196.682 230.243,193.106 222.095,185.955 C213.925,178.786 209.839,169.154 209.839,157.083 L209.839,83.286 C209.839,72.271 214.037,63.469 222.388,56.952 C230.784,50.416 241.999,47.148 256.130,47.148 C268.970,47.148 279.534,50.590 287.747,57.491 C295.917,64.372 300.049,73.252 300.049,84.076 L300.049,157.583 C300.049,169.770 296.010,179.323 287.973,186.263 C279.917,193.202 268.837,196.682 254.705,196.682 ZM268.382,82.210 C268.382,79.096 267.098,76.598 264.570,74.695 C262.042,72.771 258.748,71.812 254.639,71.812 C250.825,71.812 247.733,72.771 245.385,74.695 C242.994,76.598 241.819,79.096 241.819,82.210 L241.819,159.735 C241.819,163.656 242.904,166.674 245.138,168.808 C247.350,170.962 250.509,171.998 254.639,171.998 C258.838,171.998 262.178,170.924 264.660,168.751 C267.143,166.560 268.382,163.542 268.382,159.735 L268.382,82.210 ZM170.729,193.068 L135.723,193.068 L135.723,116.619 L94.085,0.130 L129.314,0.130 L152.018,77.270 L154.230,77.270 L175.874,0.130 L211.443,0.130 L170.729,113.006 L170.729,193.068 Z"/></svg>